<?xml version="1.0" standalone="no"?>
<!DOCTYPE svg PUBLIC "-//W3C//DTD SVG 20010904//EN"
 "http://www.w3.org/TR/2001/REC-SVG-20010904/DTD/svg10.dtd">
<svg version="1.0" xmlns="http://www.w3.org/2000/svg"
 width="296.000000pt" height="296.000000pt" viewBox="0 0 296.000000 296.000000"
 preserveAspectRatio="xMidYMid meet">
<metadata>
Created by potrace 1.11, written by Peter Selinger 2001-2013
</metadata>
<g transform="translate(0.000000,296.000000) scale(0.100000,-0.100000)"
fill="#000000" stroke="none">
<path d="M1400 2636 c-66 -28 -212 -92 -500 -219 -118 -52 -327 -144 -465
-205 -409 -180 -423 -187 -431 -215 -3 -14 -3 -35 1 -46 7 -22 21 -30 320
-161 116 -51 215 -96 220 -100 6 -5 9 -117 9 -304 -2 -288 -1 -296 21 -343 25
-53 55 -83 130 -130 86 -54 261 -115 395 -137 19 -3 51 -8 70 -11 75 -13 217
-21 359 -19 350 4 669 95 803 227 27 27 54 61 61 75 7 18 12 122 13 307 1 154
3 293 3 308 1 23 9 31 46 47 25 11 65 29 90 39 l44 20 1 -400 c0 -242 -3 -399
-9 -399 -18 0 -51 -68 -51 -104 0 -24 -9 -49 -24 -69 -55 -73 -52 -129 13
-261 28 -55 69 -130 92 -165 l41 -64 44 69 c80 125 137 248 139 303 3 42 -2
60 -31 107 -20 33 -32 64 -29 74 7 23 -11 69 -38 98 -22 23 -22 26 -22 452 0
235 3 426 6 424 10 -6 195 78 219 98 25 22 26 62 2 86 -10 10 -103 55 -207
101 -265 116 -272 120 -345 153 -36 17 -74 34 -85 38 -11 4 -99 42 -195 85
-96 42 -231 102 -300 132 -69 30 -145 64 -170 75 -148 68 -157 69 -240 34z"/>
</g>
</svg>
